<svg width="175" height="44" viewBox="0 0 175 44" fill="none" xmlns="http://www.w3.org/2000/svg">
<path d="M150.406 0.000366211V26.2226C154.664 11.2385 168.577 6.89132 175.001 6.59076L150.406 0.000366211Z" fill="#A59B8F"/>
<path d="M149.336 0.000366211V43.4741C142.278 18.632 119.22 11.4248 108.574 10.9266L149.336 0.000366211Z" fill="#A59B8F"/>
<path d="M118.349 43.089C116.534 40.2214 115.191 38.116 113.558 35.6839C111.961 37.8982 110.255 40.7295 108.984 43.089H106.298L112.723 34.4497L106.552 25.4838H110.545C111.924 27.7343 113.376 29.9849 114.974 32.3444C116.897 29.6219 118.531 27.0809 119.293 25.4838H122.016L115.845 33.5422L122.342 43.089H118.349Z" fill="#262B2F"/>
<path d="M96.8483 43.5975C91.7664 43.5975 87.955 39.6409 87.955 34.2685C87.955 28.9325 91.7664 24.9396 96.8483 24.9396C101.93 24.9396 105.778 28.9325 105.778 34.2685C105.778 39.6409 101.93 43.5975 96.8483 43.5975ZM96.8483 42.1455C100.079 42.1455 102.293 39.169 102.293 34.2685C102.293 29.3681 100.079 26.4279 96.8483 26.4279C93.654 26.4279 91.4397 29.3681 91.4397 34.2685C91.4397 39.169 93.654 42.1455 96.8483 42.1455Z" fill="#262B2F"/>
<path d="M64.516 43.0891V17.6794H67.1296L83.1376 38.8057C83.1376 30.5295 82.9198 26.1009 82.2664 17.6794H84.7711V43.1617H82.4116L66.1495 21.6724C66.1495 30.2391 66.3673 34.7039 67.0207 43.0891H64.516Z" fill="#262B2F"/>
<path d="M52.2948 43.1253L45.2527 25.4838H49.173C50.4435 29.15 51.6051 32.3807 53.166 36.5551L54.3276 39.7495C56.8322 33.3608 57.8123 30.602 59.2643 25.4838H61.6964L54.4002 43.1253H52.2948Z" fill="#262B2F"/>
<path d="M34.718 43.5975C31.7415 43.5975 29.4546 41.6373 29.4546 38.6971C29.4546 36.0835 31.2696 34.2685 34.8995 33.2885L40.0903 31.9091V30.6386C40.0903 28.388 38.6384 27.0449 36.2426 27.0449C34.2461 27.0449 32.177 28.025 30.471 29.8037V28.0613C32.1407 26.1012 34.5002 24.9396 37.1501 24.9396C40.9252 24.9396 43.321 27.1538 43.321 30.6023V39.3868C43.321 40.6935 43.9744 41.4921 45.0271 41.4921C45.4627 41.4921 45.8983 41.3832 46.2612 41.2017V42.3996C45.6442 43.0167 44.6278 43.416 43.6477 43.416C41.5423 43.416 40.1629 41.964 40.1629 39.8224V39.6772C39.2917 42.1455 37.1864 43.5975 34.718 43.5975ZM35.7707 41.5647C38.2028 41.5647 40.0903 39.2779 40.0903 36.2287V33.2885L36.2426 34.3411C33.9194 34.9582 32.54 36.4102 32.54 38.3341C32.54 40.258 33.8468 41.5647 35.7707 41.5647Z" fill="#262B2F"/>
<path d="M18.5385 43.0892C18.6837 40.766 18.7562 38.1525 18.7562 34.4862V33.9417C18.7562 30.4207 18.6837 27.8434 18.5385 25.484H21.9506V29.8399C22.6403 26.9722 24.5642 25.2299 27.1051 25.2299C27.9763 25.2299 28.5571 25.4114 28.5571 25.4114V28.5331C27.6133 28.0612 26.851 27.8797 26.125 27.8797C23.6204 27.8797 22.0232 29.9851 22.0232 33.6876V34.9944C22.0232 38.2251 22.0958 40.8386 22.241 43.0892H18.5385Z" fill="#262B2F"/>
<path d="M7.69634 43.089C7.84154 40.6932 7.91414 38.4789 7.91414 34.5223V19.2402C4.50199 19.2402 2.14252 19.4217 0.000854492 19.8573V17.6793H19.2759V19.8573C17.1342 19.4217 14.811 19.2402 11.3989 19.2402V34.5223C11.3989 38.4789 11.4352 40.6569 11.6167 43.089H7.69634Z" fill="#262B2F"/>
</svg>
