<svg xmlns="http://www.w3.org/2000/svg" width="175" height="44" viewBox="0 0 175 44" fill="none">
  <path d="M150.405 0V26.2223C154.663 11.2381 168.576 6.89096 175 6.5904L150.405 0Z" fill="#A59B8F"/>
  <path d="M149.336 0V43.4738C142.278 18.6316 119.22 11.4245 108.573 10.9262L149.336 0Z" fill="#A59B8F"/>
  <path d="M118.349 43.0886C116.534 40.221 115.19 38.1156 113.557 35.6836C111.96 37.8978 110.254 40.7292 108.983 43.0886H106.297L112.722 34.4494L106.551 25.4834H110.544C111.924 27.734 113.376 29.9845 114.973 32.344C116.897 29.6215 118.53 27.0806 119.292 25.4834H122.015L115.844 33.5419L122.341 43.0886H118.349Z" fill="#EFEEE9"/>
  <path d="M96.8475 43.5969C91.7656 43.5969 87.9541 39.6403 87.9541 34.2679C87.9541 28.9319 91.7656 24.939 96.8475 24.939C101.929 24.939 105.777 28.9319 105.777 34.2679C105.777 39.6403 101.929 43.5969 96.8475 43.5969ZM96.8475 42.1449C100.078 42.1449 102.292 39.1684 102.292 34.2679C102.292 29.3675 100.078 26.4272 96.8475 26.4272C93.6531 26.4272 91.4389 29.3675 91.4389 34.2679C91.4389 39.1684 93.6531 42.1449 96.8475 42.1449Z" fill="#EFEEE9"/>
  <path d="M64.5151 43.0883V17.6787H67.1287L83.1368 38.805C83.1368 30.5287 82.919 26.1002 82.2656 17.6787H84.7702V43.1609H82.4108L66.1486 21.6717C66.1486 30.2383 66.3664 34.7032 67.0198 43.0883H64.5151Z" fill="#EFEEE9"/>
  <path d="M52.2939 43.1249L45.2518 25.4834H49.1722C50.4427 29.1496 51.6042 32.3803 53.1651 36.5547L54.3267 39.7491C56.8314 33.3604 57.8115 30.6016 59.2634 25.4834H61.6955L54.3993 43.1249H52.2939Z" fill="#EFEEE9"/>
  <path d="M34.7172 43.5969C31.7406 43.5969 29.4537 41.6367 29.4537 38.6965C29.4537 36.0829 31.2687 34.2679 34.8987 33.2878L40.0895 31.9085V30.638C40.0895 28.3874 38.6375 27.0443 36.2417 27.0443C34.2453 27.0443 32.1762 28.0244 30.4701 29.8031V28.0607C32.1399 26.1005 34.4994 24.939 37.1492 24.939C40.9244 24.939 43.3201 27.1532 43.3201 30.6017V39.3862C43.3201 40.6929 43.9735 41.4915 45.0262 41.4915C45.4618 41.4915 45.8974 41.3826 46.2604 41.2011V42.399C45.6433 43.0161 44.6269 43.4154 43.6468 43.4154C41.5415 43.4154 40.1621 41.9634 40.1621 39.8218V39.6766C39.2909 42.1449 37.1855 43.5969 34.7172 43.5969ZM35.7698 41.5641C38.2019 41.5641 40.0895 39.2773 40.0895 36.2281V33.2878L36.2417 34.3405C33.9186 34.9576 32.5392 36.4096 32.5392 38.3335C32.5392 40.2573 33.846 41.5641 35.7698 41.5641Z" fill="#EFEEE9"/>
  <path d="M18.5376 43.0888C18.6828 40.7657 18.7554 38.1521 18.7554 34.4859V33.9414C18.7554 30.4203 18.6828 27.8431 18.5376 25.4836H21.9497V29.8395C22.6394 26.9719 24.5633 25.2295 27.1043 25.2295C27.9755 25.2295 28.5563 25.411 28.5563 25.411V28.5327C27.6125 28.0609 26.8502 27.8794 26.1242 27.8794C23.6195 27.8794 22.0223 29.9847 22.0223 33.6873V34.9941C22.0223 38.2247 22.0949 40.8383 22.2401 43.0888H18.5376Z" fill="#EFEEE9"/>
  <path d="M7.69549 43.0884C7.84069 40.6926 7.91329 38.4783 7.91329 34.5217V19.2396C4.50114 19.2396 2.14167 19.4211 0 19.8567V17.6787H19.275V19.8567C17.1334 19.4211 14.8102 19.2396 11.398 19.2396V34.5217C11.398 38.4783 11.4343 40.6563 11.6158 43.0884H7.69549Z" fill="#EFEEE9"/>
</svg>