<svg width="375" height="282" viewBox="0 0 375 282" fill="none" xmlns="http://www.w3.org/2000/svg">
<rect x="-125" y="205.2" width="768" height="76.8" fill="#262B2F"/>
<path d="M270.938 0V36.8201C276.918 15.7801 296.454 9.67597 305.474 9.25394L270.938 0Z" fill="#A59B8F"/>
<path d="M269.437 0V61.0439C259.526 26.1617 227.149 16.0417 212.199 15.3421L269.437 0Z" fill="#A59B8F"/>
<path d="M316.626 98.9908C304.229 113.063 264.132 113.981 212.214 122.526C163.333 130.57 143 140.997 177 156.6C259.755 194.576 429.829 204.847 504.6 205.2C371.81 205.196 30.7076 205.191 2.4178 205.199C1.81437 205.2 1.20831 205.2 0.599609 205.2C0.77861 205.2 1.39293 205.199 2.4178 205.199C152.181 205.048 139.956 186.272 114.985 176.866C53.6937 154.572 38.295 128.171 112.199 113.887C128.777 110.683 142.028 108.686 199.188 103.668C252.451 98.9908 318.185 98.9908 281.291 81.3231C267.512 74.7249 269.339 64.4349 269.339 60.2778C270.638 68.3322 270.118 72.7491 299.998 78.9848C323.901 83.9733 321.13 95.0069 316.626 98.9908Z" fill="#262B2F"/>
</svg>
